<?xml version="1.0" encoding="utf-8"?>
<!-- Generator: Adobe Illustrator 28.0.0, SVG Export Plug-In . SVG Version: 6.00 Build 0)  -->
<svg version="1.1" xmlns="http://www.w3.org/2000/svg" xmlns:xlink="http://www.w3.org/1999/xlink" x="0px" y="0px"
	 viewBox="0 0 91 18.6" style="enable-background:new 0 0 91 18.6;" xml:space="preserve">
<style type="text/css">
	.st0{display:none;}
	.st1{display:inline;}
	.st2{fill:#FF0033;}
	.st3{fill:url(#SVGID_1_);}
	.st4{fill:url(#SVGID_00000088841537959447270720000016850196454896325522_);}
	.st5{fill:url(#SVGID_00000180324239817983624940000003084614194017329058_);}
	.st6{filter:url(#AI_GaussianBlur_4);}
	.st7{fill:url(#SVGID_00000125584444877463672080000003550158823794319234_);}
	.st8{fill:url(#SVGID_00000030466127094825270750000009163773638331326379_);}
	.st9{fill:url(#SVGID_00000039853956256689884790000003782477782751123882_);}
	.st10{fill:url(#SVGID_00000134226307732925973760000004012675071971164038_);}
	.st11{fill:#FFFFFF;}
</style>
<filter  height="300%" id="AI_GaussianBlur_4" width="300%" x="-100%" y="-100%">
	<feGaussianBlur  stdDeviation="1"></feGaussianBlur>
</filter>
<g id="Слой_2" class="st0">
	<rect x="0" class="st1" width="91" height="18.6"/>
</g>
<g id="Слой_1">
	<g id="Слой_1_00000071560186239684206860000004844156939602642564_">
		<path class="st2" d="M-74.2,52.9c-6,0-10.8,4.8-10.8,10.8h21.7C-63.4,57.7-68.3,52.9-74.2,52.9z"/>
		
			<linearGradient id="SVGID_1_" gradientUnits="userSpaceOnUse" x1="-74.2453" y1="-39.8317" x2="-74.2453" y2="-61.4902" gradientTransform="matrix(1 0 0 -1 0 21.0244)">
			<stop  offset="0" style="stop-color:#000000"/>
			<stop  offset="1" style="stop-color:#000000"/>
		</linearGradient>
		<path class="st3" d="M-74.2,74.5c6,0,10.8-4.9,10.8-10.8h-21.7C-85.1,69.7-80.2,74.5-74.2,74.5z"/>
		
			<linearGradient id="SVGID_00000123412283454927248880000018267840904730254262_" gradientUnits="userSpaceOnUse" x1="-76.2244" y1="-41.9368" x2="-76.2244" y2="-34.9506" gradientTransform="matrix(1 0 0 -1 0 21.0244)">
			<stop  offset="0" style="stop-color:#000000"/>
			<stop  offset="8.567832e-02" style="stop-color:#0B0002"/>
			<stop  offset="0.2344" style="stop-color:#270008"/>
			<stop  offset="0.4285" style="stop-color:#550011"/>
			<stop  offset="0.6604" style="stop-color:#95001E"/>
			<stop  offset="0.9215" style="stop-color:#E5002E"/>
			<stop  offset="1" style="stop-color:#FF0033"/>
		</linearGradient>
		<path style="fill:url(#SVGID_00000123412283454927248880000018267840904730254262_);" d="M-79.7,55.8
			C-79.7,55.8-79.7,55.8-79.7,55.8c0.1-0.1,0.1-0.1,0.1-0.1h6c0,0,0.1,0,0.1,0s0,0.1,0,0.1v1.7c0,0.1,0,0.2-0.1,0.3l-1.8,2.4
			l2.6,3.4c0,0,0,0.1,0,0.1c0,0,0,0.1-0.1,0.1h-1.4c-0.2,0-0.3-0.1-0.4-0.2l-2.5-3.2c-0.1-0.1-0.1-0.1,0-0.2l2.2-2.9h-3.4v6.4
			c0,0.1,0,0.1-0.1,0.1h-1.2c0,0-0.1,0-0.1,0c0,0,0-0.1,0-0.1L-79.7,55.8L-79.7,55.8z"/>
		
			<linearGradient id="SVGID_00000010297020021395470280000007767477076561013635_" gradientUnits="userSpaceOnUse" x1="-71.1821" y1="-49.5082" x2="-71.1821" y2="-43.3159" gradientTransform="matrix(1 0 0 -1 0 21.0244)">
			<stop  offset="0" style="stop-color:#000000"/>
			<stop  offset="1.444441e-02" style="stop-color:#0B0002"/>
			<stop  offset="8.990479e-02" style="stop-color:#3D000C"/>
			<stop  offset="0.1708" style="stop-color:#6B0015"/>
			<stop  offset="0.2553" style="stop-color:#93001D"/>
			<stop  offset="0.3443" style="stop-color:#B50024"/>
			<stop  offset="0.439" style="stop-color:#D0002A"/>
			<stop  offset="0.5415" style="stop-color:#E5002E"/>
			<stop  offset="0.6556" style="stop-color:#F40031"/>
			<stop  offset="0.7907" style="stop-color:#FC0032"/>
			<stop  offset="1" style="stop-color:#FF0033"/>
		</linearGradient>
		<path style="fill:url(#SVGID_00000010297020021395470280000007767477076561013635_);" d="M-74.3,71.5v-7.7c0,0,0-0.1,0-0.1
			c0,0,0.1,0,0.1,0h1.2c0.1,0,0.1,0,0.1,0.1V67h3.3v-3.1c0,0,0-0.1,0-0.1c0,0,0.1,0,0.1,0h1.2c0,0,0.1,0,0.1,0c0,0,0,0.1,0,0.1v7.7
			c0,0,0,0.1,0,0.1s-0.1,0-0.1,0h-1.2c0,0-0.1,0-0.1,0s0-0.1,0-0.1v-3.1h-3.3v3.1c0,0.1,0,0.1-0.1,0.1h-1.2
			C-74.2,71.7-74.2,71.6-74.3,71.5C-74.3,71.6-74.3,71.6-74.3,71.5z"/>
	</g>
	<g class="st6">
		<path class="st2" d="M54.9,1.8c-4.2,0-7.7,3.4-7.7,7.7h15.3C62.5,5.2,59.1,1.8,54.9,1.8z"/>
	</g>
	<g class="st6">
		
			<linearGradient id="SVGID_00000147219685450588440570000001660983748559448470_" gradientUnits="userSpaceOnUse" x1="54.8856" y1="7.4485" x2="54.8856" y2="22.7652">
			<stop  offset="0" style="stop-color:#000000"/>
			<stop  offset="1" style="stop-color:#000000"/>
		</linearGradient>
		<path style="fill:url(#SVGID_00000147219685450588440570000001660983748559448470_);" d="M54.9,17.1c4.2,0,7.7-3.4,7.7-7.7H47.2
			C47.2,13.7,50.7,17.1,54.9,17.1z"/>
	</g>
	<g>
		<path class="st2" d="M54.9,1.8c-4.2,0-7.7,3.4-7.7,7.7h15.3C62.6,5.2,59.1,1.8,54.9,1.8z"/>
	</g>
	
		<linearGradient id="SVGID_00000012454112091508779560000013803023289225740457_" gradientUnits="userSpaceOnUse" x1="54.9081" y1="13.5761" x2="54.9081" y2="-1.7405" gradientTransform="matrix(1 0 0 -1 0 21.0244)">
		<stop  offset="0" style="stop-color:#000000"/>
		<stop  offset="1" style="stop-color:#000000"/>
	</linearGradient>
	<path style="fill:url(#SVGID_00000012454112091508779560000013803023289225740457_);" d="M54.9,17.1c4.2,0,7.7-3.4,7.7-7.7H47.2
		C47.2,13.7,50.7,17.1,54.9,17.1z"/>
	<g id="Слой_2_00000027604362745708940710000001887629943953363848_">
	</g>
	
		<linearGradient id="SVGID_00000034047301226704440840000010525157380022667954_" gradientUnits="userSpaceOnUse" x1="53.0959" y1="8.8921" x2="53.0959" y2="2.7598">
		<stop  offset="0" style="stop-color:#000000"/>
		<stop  offset="0.1319" style="stop-color:#230007"/>
		<stop  offset="0.7372" style="stop-color:#C00026"/>
		<stop  offset="1" style="stop-color:#FF0033"/>
	</linearGradient>
	<path style="fill:url(#SVGID_00000034047301226704440840000010525157380022667954_);" d="M50.4,3.4C50.4,3.4,50.4,3.3,50.4,3.4
		c0.1-0.1,0.1-0.1,0.1-0.1h4.6c0,0,0.1,0,0.1,0c0,0,0,0,0,0.1v1.3c0,0.1,0,0.2-0.1,0.2l-1.4,1.8l2,2.6c0,0,0,0.1,0,0.1
		c0,0,0,0-0.1,0h-1.1c-0.1,0-0.2,0-0.3-0.1l-1.9-2.5c0,0,0-0.1,0-0.1l1.7-2.3h-2.6v4.9c0,0.1,0,0.1-0.1,0.1h-0.9c0,0-0.1,0-0.1,0
		c0,0,0,0,0-0.1V3.4z"/>
	
		<linearGradient id="SVGID_00000151523123552315761160000005118857264494580646_" gradientUnits="userSpaceOnUse" x1="56.9811" y1="16.0191" x2="56.9811" y2="7.6022">
		<stop  offset="0" style="stop-color:#000000"/>
		<stop  offset="2.047747e-02" style="stop-color:#090002"/>
		<stop  offset="0.1819" style="stop-color:#49000F"/>
		<stop  offset="0.3412" style="stop-color:#80001A"/>
		<stop  offset="0.4943" style="stop-color:#AE0023"/>
		<stop  offset="0.64" style="stop-color:#D1002A"/>
		<stop  offset="0.7765" style="stop-color:#EA002F"/>
		<stop  offset="0.9003" style="stop-color:#FA0032"/>
		<stop  offset="1" style="stop-color:#FF0033"/>
	</linearGradient>
	<path style="fill:url(#SVGID_00000151523123552315761160000005118857264494580646_);" d="M54.6,15.5V9.6c0,0,0-0.1,0-0.1
		c0,0,0,0,0.1,0h0.9c0.1,0,0.1,0,0.1,0.1V12h2.5V9.6c0,0,0-0.1,0-0.1c0,0,0,0,0.1,0h0.9c0,0,0.1,0,0.1,0c0,0,0,0,0,0.1v5.9
		c0,0,0,0.1,0,0.1c0,0,0,0-0.1,0h-0.9c0,0-0.1,0-0.1,0c0,0,0,0,0-0.1v-2.4h-2.5v2.4c0,0.1,0,0.1-0.1,0.1h-0.9
		C54.7,15.6,54.6,15.6,54.6,15.5C54.6,15.5,54.6,15.5,54.6,15.5z"/>
	<path class="st11" d="M0,5C0,5,0,5,0,4.9c0,0,0.1,0,0.1,0h7.1c0,0,0.1,0,0.1,0c0,0,0,0.1,0,0.1V7c0,0.1,0,0.2-0.1,0.3L5.2,10l3,3.9
		c0,0,0,0.1,0,0.1c0,0-0.1,0.1-0.1,0.1H6.4C6.2,14,6.1,14,6,13.8L3,10.1C3,10,3,10,3,9.9l2.6-3.4H1.7v7.3C1.7,14,1.7,14,1.5,14H0.2
		c0,0-0.1,0-0.1,0c0,0,0-0.1,0-0.1V5z"/>
	<path class="st11" d="M9.5,4.9h6.2c0.1,0,0.1,0,0.1,0.1c0,0,0,0.1,0,0.1l-1,1.3c-0.1,0.1-0.3,0.2-0.4,0.2H11v2.1h3.4
		c0.1,0,0.2,0.1,0.2,0.2v1.3c0,0.1-0.1,0.2-0.2,0.2H11v2.1h4.2c0,0,0.1,0,0.1,0c0,0,0,0.1,0,0.1v1.3c0,0.1-0.1,0.2-0.2,0.2H9.5
		c0,0-0.1,0-0.1,0c0,0,0-0.1,0-0.1V5c0,0,0-0.1,0-0.1C9.4,4.9,9.4,4.9,9.5,4.9z"/>
	<path class="st11" d="M17.7,5c0,0,0-0.1,0-0.1c0,0,0.1,0,0.1,0h3c0.6,0,1.2,0.1,1.8,0.4c0.6,0.2,1.1,0.6,1.5,1
		c0.4,0.4,0.8,0.9,1,1.4c0.3,0.5,0.4,1.1,0.4,1.7c0,0.6-0.1,1.3-0.4,1.8c-0.3,0.6-0.6,1.1-1,1.5c-0.4,0.4-1,0.8-1.5,1
		c-0.6,0.2-1.2,0.4-1.9,0.4h-2.9c0,0-0.1,0-0.1,0c0,0,0-0.1,0-0.1V5z M19.4,12.4h1.4c0.4,0,0.8-0.1,1.2-0.2c0.4-0.2,0.7-0.4,1-0.6
		c0.3-0.3,0.5-0.6,0.6-0.9c0.2-0.4,0.2-0.7,0.2-1.1c0-0.4-0.1-0.8-0.2-1.1C23.5,8,23.3,7.7,23,7.4c-0.3-0.3-0.6-0.5-1-0.6
		c-0.4-0.2-0.7-0.2-1.2-0.2h-1.4V12.4z"/>
	<path class="st11" d="M27.2,4.8h1.4c0,0,0.1,0,0.1,0c0,0,0,0.1,0,0.1v5.7c0,0.2,0,0.5,0.1,0.7c0.1,0.2,0.2,0.4,0.3,0.6
		c0.1,0.2,0.3,0.3,0.5,0.4c0.2,0.1,0.4,0.2,0.7,0.2c0.3,0,0.5,0,0.8-0.1c0.2-0.1,0.5-0.2,0.6-0.4c0.2-0.2,0.3-0.4,0.4-0.6
		c0.1-0.2,0.2-0.5,0.2-0.7V4.9c0,0,0-0.1,0.1-0.1c0,0,0.1,0,0.1,0H34c0,0,0.1,0,0.1,0c0,0,0,0.1,0,0.1v5.7c0,0.5-0.1,0.9-0.3,1.3
		c-0.2,0.4-0.4,0.8-0.7,1.1c-0.3,0.3-0.7,0.6-1.1,0.8c-0.4,0.2-0.9,0.3-1.4,0.3c-0.5,0-1-0.1-1.4-0.3c-0.4-0.2-0.8-0.4-1.2-0.8
		c-0.3-0.3-0.6-0.7-0.8-1.1c-0.2-0.4-0.3-0.9-0.3-1.4V4.9c0,0,0-0.1,0-0.1C27.1,4.8,27.2,4.8,27.2,4.8z"/>
	<path class="st11" d="M35.2,13.8l3.5-4.4l-3.5-4.4c0,0,0-0.1,0-0.1c0,0,0.1-0.1,0.1-0.1H37c0.2,0,0.3,0.1,0.4,0.2l2.3,3l2.3-3
		c0.1-0.1,0.3-0.2,0.4-0.2h1.7c0.1,0,0.1,0,0.1,0.1c0,0,0,0.1,0,0.1l-3.5,4.4l3.5,4.4c0,0,0,0.1,0,0.1c0,0-0.1,0.1-0.1,0.1h-1.7
		c-0.2,0-0.3-0.1-0.4-0.2l-2.3-3l-2.3,3C37.3,14,37.2,14,37,14h-1.7c0,0-0.1,0-0.1-0.1C35.2,13.9,35.2,13.9,35.2,13.8z"/>
	<path class="st11" d="M65.4,13.9V5c0,0,0-0.1,0-0.1c0,0,0.1,0,0.1,0H67c0.1,0,0.2,0.1,0.2,0.2v3.6H71V5c0,0,0-0.1,0-0.1
		c0,0,0.1,0,0.1,0h1.4c0,0,0.1,0,0.1,0c0,0,0,0.1,0,0.1v8.8c0,0,0,0.1,0,0.1c0,0-0.1,0-0.1,0h-1.4c0,0-0.1,0-0.1,0c0,0,0-0.1,0-0.1
		v-3.6h-3.9v3.6c0,0.1-0.1,0.2-0.2,0.2h-1.4c0,0-0.1,0-0.1,0C65.4,13.9,65.4,13.9,65.4,13.9z"/>
	<path class="st11" d="M74.7,4.8h1.4c0,0,0.1,0,0.1,0c0,0,0,0.1,0,0.1v5.7c0,0.2,0,0.5,0.1,0.7c0.1,0.2,0.2,0.4,0.3,0.6
		c0.1,0.2,0.3,0.3,0.5,0.4c0.2,0.1,0.4,0.2,0.7,0.2c0.3,0,0.5,0,0.8-0.1c0.2-0.1,0.5-0.2,0.6-0.4c0.2-0.2,0.3-0.4,0.4-0.6
		c0.1-0.2,0.2-0.5,0.2-0.7V4.9c0,0,0-0.1,0.1-0.1c0,0,0.1,0,0.1,0h1.4c0,0,0.1,0,0.1,0c0,0,0,0.1,0,0.1v5.7c0,0.5-0.1,0.9-0.3,1.3
		c-0.2,0.4-0.4,0.8-0.7,1.1c-0.3,0.3-0.7,0.6-1.1,0.8c-0.4,0.2-0.9,0.3-1.4,0.3c-0.5,0-1-0.1-1.4-0.3c-0.4-0.2-0.8-0.4-1.2-0.8
		c-0.3-0.3-0.6-0.7-0.8-1.1c-0.2-0.4-0.3-0.9-0.3-1.4V4.9c0,0,0-0.1,0-0.1C74.6,4.8,74.7,4.8,74.7,4.8z"/>
	<path class="st11" d="M83.8,4.9h7.1C90.9,4.9,91,4.9,91,5V7c0,0.1,0,0.2-0.1,0.3l-1.7,2.2l1.7,2.2c0.1,0.1,0.1,0.2,0.1,0.3v1.9
		c0,0.1-0.1,0.2-0.2,0.2h-7.1c0,0-0.1,0-0.1,0c0,0,0-0.1,0-0.1V5c0,0,0-0.1,0-0.1C83.7,4.9,83.7,4.9,83.8,4.9z M89.2,12.4L87,9.6
		c0-0.1,0-0.1,0-0.2l2.2-2.8h-3.9v5.8H89.2z"/>
</g>
</svg>
